<mxfile host="app.diagrams.net" agent="Mozilla/5.0 (X11; Linux x86_64) AppleWebKit/537.36 (KHTML, like Gecko) Chrome/129.0.0.0 Safari/537.36" version="24.7.16">
  <diagram id="C5RBs43oDa-KdzZeNtuy" name="Page-1">
    <mxGraphModel dx="2832" dy="346" grid="0" gridSize="10" guides="1" tooltips="1" connect="1" arrows="1" fold="1" page="0" pageScale="1" pageWidth="827" pageHeight="1169" background="none" math="0" shadow="0">
      <root>
        <mxCell id="WIyWlLk6GJQsqaUBKTNV-0" />
        <mxCell id="WIyWlLk6GJQsqaUBKTNV-1" parent="WIyWlLk6GJQsqaUBKTNV-0" />
        <mxCell id="zkfFHV4jXpPFQw0GAbJ--0" value="Window" style="swimlane;fontStyle=0;align=center;verticalAlign=top;childLayout=stackLayout;horizontal=1;startSize=26;horizontalStack=0;resizeParent=1;resizeLast=0;collapsible=1;marginBottom=0;rounded=0;shadow=1;strokeWidth=1;" parent="WIyWlLk6GJQsqaUBKTNV-1" vertex="1">
          <mxGeometry x="1235" y="410" width="350" height="190" as="geometry">
            <mxRectangle x="230" y="140" width="160" height="26" as="alternateBounds" />
          </mxGeometry>
        </mxCell>
        <mxCell id="zkfFHV4jXpPFQw0GAbJ--1" value="+ container: CTkFrame" style="text;align=left;verticalAlign=top;spacingLeft=4;spacingRight=4;overflow=hidden;rotatable=0;points=[[0,0.5],[1,0.5]];portConstraint=eastwest;fontFamily=Courier New;shadow=1;" parent="zkfFHV4jXpPFQw0GAbJ--0" vertex="1">
          <mxGeometry y="26" width="350" height="26" as="geometry" />
        </mxCell>
        <mxCell id="g-zU0oQT_0GEfk-_0RB5-38" value="+ views: dict[str, BaseView]" style="text;align=left;verticalAlign=top;spacingLeft=4;spacingRight=4;overflow=hidden;rotatable=0;points=[[0,0.5],[1,0.5]];portConstraint=eastwest;fontFamily=Courier New;shadow=1;" parent="zkfFHV4jXpPFQw0GAbJ--0" vertex="1">
          <mxGeometry y="52" width="350" height="26" as="geometry" />
        </mxCell>
        <mxCell id="zkfFHV4jXpPFQw0GAbJ--4" value="" style="line;html=1;strokeWidth=1;align=left;verticalAlign=middle;spacingTop=-1;spacingLeft=3;spacingRight=3;rotatable=0;labelPosition=right;points=[];portConstraint=eastwest;shadow=1;" parent="zkfFHV4jXpPFQw0GAbJ--0" vertex="1">
          <mxGeometry y="78" width="350" height="8" as="geometry" />
        </mxCell>
        <mxCell id="zkfFHV4jXpPFQw0GAbJ--5" value="- create_window(): None" style="text;align=left;verticalAlign=top;spacingLeft=4;spacingRight=4;overflow=hidden;rotatable=0;points=[[0,0.5],[1,0.5]];portConstraint=eastwest;fontFamily=Courier New;shadow=1;" parent="zkfFHV4jXpPFQw0GAbJ--0" vertex="1">
          <mxGeometry y="86" width="350" height="26" as="geometry" />
        </mxCell>
        <mxCell id="QHscMvE9-RnjpSWjxgZC-1" value="- switch_temes(theme: str): None" style="text;align=left;verticalAlign=top;spacingLeft=4;spacingRight=4;overflow=hidden;rotatable=0;points=[[0,0.5],[1,0.5]];portConstraint=eastwest;fontFamily=Courier New;shadow=1;" parent="zkfFHV4jXpPFQw0GAbJ--0" vertex="1">
          <mxGeometry y="112" width="350" height="26" as="geometry" />
        </mxCell>
        <mxCell id="QHscMvE9-RnjpSWjxgZC-0" value="- set_views(view: List[Type[BaseView]]): None" style="text;align=left;verticalAlign=top;spacingLeft=4;spacingRight=4;overflow=hidden;rotatable=0;points=[[0,0.5],[1,0.5]];portConstraint=eastwest;fontFamily=Courier New;shadow=1;" parent="zkfFHV4jXpPFQw0GAbJ--0" vertex="1">
          <mxGeometry y="138" width="350" height="26" as="geometry" />
        </mxCell>
        <mxCell id="NFaRfibRQBAF27eFvPAq-15" value="- get_view(view_name: str): None" style="text;align=left;verticalAlign=top;spacingLeft=4;spacingRight=4;overflow=hidden;rotatable=0;points=[[0,0.5],[1,0.5]];portConstraint=eastwest;fontFamily=Courier New;shadow=1;" parent="zkfFHV4jXpPFQw0GAbJ--0" vertex="1">
          <mxGeometry y="164" width="350" height="26" as="geometry" />
        </mxCell>
        <mxCell id="zkfFHV4jXpPFQw0GAbJ--6" value="ConfigPage" style="swimlane;fontStyle=0;align=center;verticalAlign=top;childLayout=stackLayout;horizontal=1;startSize=26;horizontalStack=0;resizeParent=1;resizeLast=0;collapsible=1;marginBottom=0;rounded=0;shadow=1;strokeWidth=1;" parent="WIyWlLk6GJQsqaUBKTNV-1" vertex="1">
          <mxGeometry x="1081" y="850" width="160" height="138" as="geometry">
            <mxRectangle x="130" y="380" width="160" height="26" as="alternateBounds" />
          </mxGeometry>
        </mxCell>
        <mxCell id="zkfFHV4jXpPFQw0GAbJ--8" value="Average Mark" style="text;align=left;verticalAlign=top;spacingLeft=4;spacingRight=4;overflow=hidden;rotatable=0;points=[[0,0.5],[1,0.5]];portConstraint=eastwest;rounded=0;shadow=1;html=0;" parent="zkfFHV4jXpPFQw0GAbJ--6" vertex="1">
          <mxGeometry y="26" width="160" height="26" as="geometry" />
        </mxCell>
        <mxCell id="zkfFHV4jXpPFQw0GAbJ--9" value="" style="line;html=1;strokeWidth=1;align=left;verticalAlign=middle;spacingTop=-1;spacingLeft=3;spacingRight=3;rotatable=0;labelPosition=right;points=[];portConstraint=eastwest;shadow=1;" parent="zkfFHV4jXpPFQw0GAbJ--6" vertex="1">
          <mxGeometry y="52" width="160" height="8" as="geometry" />
        </mxCell>
        <mxCell id="zkfFHV4jXpPFQw0GAbJ--10" value="Is Eligible To Enroll" style="text;align=left;verticalAlign=top;spacingLeft=4;spacingRight=4;overflow=hidden;rotatable=0;points=[[0,0.5],[1,0.5]];portConstraint=eastwest;fontStyle=4;shadow=1;" parent="zkfFHV4jXpPFQw0GAbJ--6" vertex="1">
          <mxGeometry y="60" width="160" height="26" as="geometry" />
        </mxCell>
        <mxCell id="zkfFHV4jXpPFQw0GAbJ--11" value="Get Seminars Taken" style="text;align=left;verticalAlign=top;spacingLeft=4;spacingRight=4;overflow=hidden;rotatable=0;points=[[0,0.5],[1,0.5]];portConstraint=eastwest;shadow=1;" parent="zkfFHV4jXpPFQw0GAbJ--6" vertex="1">
          <mxGeometry y="86" width="160" height="26" as="geometry" />
        </mxCell>
        <mxCell id="zkfFHV4jXpPFQw0GAbJ--13" value="ReadFilePage" style="swimlane;fontStyle=0;align=center;verticalAlign=top;childLayout=stackLayout;horizontal=1;startSize=26;horizontalStack=0;resizeParent=1;resizeLast=0;collapsible=1;marginBottom=0;rounded=0;shadow=1;strokeWidth=1;" parent="WIyWlLk6GJQsqaUBKTNV-1" vertex="1">
          <mxGeometry x="1320" y="884" width="160" height="70" as="geometry">
            <mxRectangle x="340" y="380" width="170" height="26" as="alternateBounds" />
          </mxGeometry>
        </mxCell>
        <mxCell id="zkfFHV4jXpPFQw0GAbJ--14" value="Salary" style="text;align=left;verticalAlign=top;spacingLeft=4;spacingRight=4;overflow=hidden;rotatable=0;points=[[0,0.5],[1,0.5]];portConstraint=eastwest;shadow=1;" parent="zkfFHV4jXpPFQw0GAbJ--13" vertex="1">
          <mxGeometry y="26" width="160" height="26" as="geometry" />
        </mxCell>
        <mxCell id="zkfFHV4jXpPFQw0GAbJ--15" value="" style="line;html=1;strokeWidth=1;align=left;verticalAlign=middle;spacingTop=-1;spacingLeft=3;spacingRight=3;rotatable=0;labelPosition=right;points=[];portConstraint=eastwest;shadow=1;" parent="zkfFHV4jXpPFQw0GAbJ--13" vertex="1">
          <mxGeometry y="52" width="160" height="8" as="geometry" />
        </mxCell>
        <mxCell id="zkfFHV4jXpPFQw0GAbJ--17" value="MainPage" style="swimlane;fontStyle=0;align=center;verticalAlign=top;childLayout=stackLayout;horizontal=1;startSize=26;horizontalStack=0;resizeParent=1;resizeLast=0;collapsible=1;marginBottom=0;rounded=0;shadow=1;strokeWidth=1;fontFamily=Courier New;" parent="WIyWlLk6GJQsqaUBKTNV-1" vertex="1">
          <mxGeometry x="1560" y="790" width="300" height="230" as="geometry">
            <mxRectangle x="550" y="140" width="160" height="26" as="alternateBounds" />
          </mxGeometry>
        </mxCell>
        <mxCell id="zkfFHV4jXpPFQw0GAbJ--18" value="+ controller: CTk" style="text;align=left;verticalAlign=top;spacingLeft=4;spacingRight=4;overflow=hidden;rotatable=0;points=[[0,0.5],[1,0.5]];portConstraint=eastwest;shadow=1;fontFamily=Courier New;" parent="zkfFHV4jXpPFQw0GAbJ--17" vertex="1">
          <mxGeometry y="26" width="300" height="26" as="geometry" />
        </mxCell>
        <mxCell id="zkfFHV4jXpPFQw0GAbJ--20" value="+ automation_service: AutomationService" style="text;align=left;verticalAlign=top;spacingLeft=4;spacingRight=4;overflow=hidden;rotatable=0;points=[[0,0.5],[1,0.5]];portConstraint=eastwest;rounded=0;shadow=1;html=0;fontFamily=Courier New;" parent="zkfFHV4jXpPFQw0GAbJ--17" vertex="1">
          <mxGeometry y="52" width="300" height="26" as="geometry" />
        </mxCell>
        <mxCell id="zkfFHV4jXpPFQw0GAbJ--23" value="" style="line;html=1;strokeWidth=1;align=left;verticalAlign=middle;spacingTop=-1;spacingLeft=3;spacingRight=3;rotatable=0;labelPosition=right;points=[];portConstraint=eastwest;shadow=1;" parent="zkfFHV4jXpPFQw0GAbJ--17" vertex="1">
          <mxGeometry y="78" width="300" height="8" as="geometry" />
        </mxCell>
        <mxCell id="zkfFHV4jXpPFQw0GAbJ--24" value="+ __init__(parent, controller)" style="text;align=left;verticalAlign=top;spacingLeft=4;spacingRight=4;overflow=hidden;rotatable=0;points=[[0,0.5],[1,0.5]];portConstraint=eastwest;shadow=1;fontFamily=Courier New;" parent="zkfFHV4jXpPFQw0GAbJ--17" vertex="1">
          <mxGeometry y="86" width="300" height="26" as="geometry" />
        </mxCell>
        <mxCell id="zkfFHV4jXpPFQw0GAbJ--25" value="+ start()" style="text;align=left;verticalAlign=top;spacingLeft=4;spacingRight=4;overflow=hidden;rotatable=0;points=[[0,0.5],[1,0.5]];portConstraint=eastwest;shadow=1;fontFamily=Courier New;" parent="zkfFHV4jXpPFQw0GAbJ--17" vertex="1">
          <mxGeometry y="112" width="300" height="26" as="geometry" />
        </mxCell>
        <mxCell id="ytB4MkpsGnKEpf6S8_Jn-2" value="+ configuration()" style="text;align=left;verticalAlign=top;spacingLeft=4;spacingRight=4;overflow=hidden;rotatable=0;points=[[0,0.5],[1,0.5]];portConstraint=eastwest;shadow=1;fontFamily=Courier New;" parent="zkfFHV4jXpPFQw0GAbJ--17" vertex="1">
          <mxGeometry y="138" width="300" height="26" as="geometry" />
        </mxCell>
        <mxCell id="ytB4MkpsGnKEpf6S8_Jn-1" value="+ files()" style="text;align=left;verticalAlign=top;spacingLeft=4;spacingRight=4;overflow=hidden;rotatable=0;points=[[0,0.5],[1,0.5]];portConstraint=eastwest;shadow=1;fontFamily=Courier New;" parent="zkfFHV4jXpPFQw0GAbJ--17" vertex="1">
          <mxGeometry y="164" width="300" height="30" as="geometry" />
        </mxCell>
        <mxCell id="ytB4MkpsGnKEpf6S8_Jn-0" value="+ exit()" style="text;align=left;verticalAlign=top;spacingLeft=4;spacingRight=4;overflow=hidden;rotatable=0;points=[[0,0.5],[1,0.5]];portConstraint=eastwest;shadow=1;fontFamily=Courier New;" parent="zkfFHV4jXpPFQw0GAbJ--17" vertex="1">
          <mxGeometry y="194" width="300" height="26" as="geometry" />
        </mxCell>
        <mxCell id="QHscMvE9-RnjpSWjxgZC-2" value="AutomationService" style="swimlane;fontStyle=0;align=center;verticalAlign=top;childLayout=stackLayout;horizontal=1;startSize=26;horizontalStack=0;resizeParent=1;resizeLast=0;collapsible=1;marginBottom=0;rounded=0;shadow=1;strokeWidth=1;fontFamily=Courier New;" parent="WIyWlLk6GJQsqaUBKTNV-1" vertex="1">
          <mxGeometry x="1560" y="1090" width="160" height="90" as="geometry">
            <mxRectangle x="340" y="380" width="170" height="26" as="alternateBounds" />
          </mxGeometry>
        </mxCell>
        <mxCell id="QHscMvE9-RnjpSWjxgZC-3" value="Salary" style="text;align=left;verticalAlign=top;spacingLeft=4;spacingRight=4;overflow=hidden;rotatable=0;points=[[0,0.5],[1,0.5]];portConstraint=eastwest;shadow=1;" parent="QHscMvE9-RnjpSWjxgZC-2" vertex="1">
          <mxGeometry y="26" width="160" height="26" as="geometry" />
        </mxCell>
        <mxCell id="QHscMvE9-RnjpSWjxgZC-4" value="" style="line;html=1;strokeWidth=1;align=left;verticalAlign=middle;spacingTop=-1;spacingLeft=3;spacingRight=3;rotatable=0;labelPosition=right;points=[];portConstraint=eastwest;shadow=1;" parent="QHscMvE9-RnjpSWjxgZC-2" vertex="1">
          <mxGeometry y="52" width="160" height="8" as="geometry" />
        </mxCell>
        <mxCell id="g-zU0oQT_0GEfk-_0RB5-23" value="Salary" style="text;align=left;verticalAlign=top;spacingLeft=4;spacingRight=4;overflow=hidden;rotatable=0;points=[[0,0.5],[1,0.5]];portConstraint=eastwest;shadow=1;" parent="QHscMvE9-RnjpSWjxgZC-2" vertex="1">
          <mxGeometry y="60" width="160" height="26" as="geometry" />
        </mxCell>
        <mxCell id="QHscMvE9-RnjpSWjxgZC-6" value="DataHandler" style="swimlane;fontStyle=0;align=center;verticalAlign=top;childLayout=stackLayout;horizontal=1;startSize=26;horizontalStack=0;resizeParent=1;resizeLast=0;collapsible=1;marginBottom=0;rounded=0;shadow=1;strokeWidth=1;fontFamily=Courier New;" parent="WIyWlLk6GJQsqaUBKTNV-1" vertex="1">
          <mxGeometry x="1560" y="1310" width="250" height="164" as="geometry">
            <mxRectangle x="550" y="140" width="160" height="26" as="alternateBounds" />
          </mxGeometry>
        </mxCell>
        <mxCell id="QHscMvE9-RnjpSWjxgZC-7" value="output: dict" style="text;align=left;verticalAlign=top;spacingLeft=4;spacingRight=4;overflow=hidden;rotatable=0;points=[[0,0.5],[1,0.5]];portConstraint=eastwest;fontFamily=Courier New;shadow=1;" parent="QHscMvE9-RnjpSWjxgZC-6" vertex="1">
          <mxGeometry y="26" width="250" height="26" as="geometry" />
        </mxCell>
        <mxCell id="QHscMvE9-RnjpSWjxgZC-8" value="dataframe: DataFrame" style="text;align=left;verticalAlign=top;spacingLeft=4;spacingRight=4;overflow=hidden;rotatable=0;points=[[0,0.5],[1,0.5]];portConstraint=eastwest;rounded=0;shadow=1;html=0;fontFamily=Courier New;" parent="QHscMvE9-RnjpSWjxgZC-6" vertex="1">
          <mxGeometry y="52" width="250" height="26" as="geometry" />
        </mxCell>
        <mxCell id="QHscMvE9-RnjpSWjxgZC-12" value="" style="line;html=1;strokeWidth=1;align=left;verticalAlign=middle;spacingTop=-1;spacingLeft=3;spacingRight=3;rotatable=0;labelPosition=right;points=[];portConstraint=eastwest;shadow=1;" parent="QHscMvE9-RnjpSWjxgZC-6" vertex="1">
          <mxGeometry y="78" width="250" height="8" as="geometry" />
        </mxCell>
        <mxCell id="g-zU0oQT_0GEfk-_0RB5-37" style="text;align=left;verticalAlign=top;spacingLeft=4;spacingRight=4;overflow=hidden;rotatable=0;points=[[0,0.5],[1,0.5]];portConstraint=eastwest;fontFamily=Courier New;shadow=1;" parent="QHscMvE9-RnjpSWjxgZC-6" vertex="1">
          <mxGeometry y="86" width="250" height="26" as="geometry" />
        </mxCell>
        <mxCell id="QHscMvE9-RnjpSWjxgZC-13" value="jsonify(columns: list[str]): None" style="text;align=left;verticalAlign=top;spacingLeft=4;spacingRight=4;overflow=hidden;rotatable=0;points=[[0,0.5],[1,0.5]];portConstraint=eastwest;fontFamily=Courier New;shadow=1;" parent="QHscMvE9-RnjpSWjxgZC-6" vertex="1">
          <mxGeometry y="112" width="250" height="26" as="geometry" />
        </mxCell>
        <mxCell id="QHscMvE9-RnjpSWjxgZC-14" value="make_output(): None" style="text;align=left;verticalAlign=top;spacingLeft=4;spacingRight=4;overflow=hidden;rotatable=0;points=[[0,0.5],[1,0.5]];portConstraint=eastwest;fontFamily=Courier New;shadow=1;" parent="QHscMvE9-RnjpSWjxgZC-6" vertex="1">
          <mxGeometry y="138" width="250" height="26" as="geometry" />
        </mxCell>
        <mxCell id="QHscMvE9-RnjpSWjxgZC-15" value="APIHandler" style="swimlane;fontStyle=0;align=center;verticalAlign=top;childLayout=stackLayout;horizontal=1;startSize=26;horizontalStack=0;resizeParent=1;resizeLast=0;collapsible=1;marginBottom=0;rounded=0;shadow=1;strokeWidth=1;fontFamily=Courier New;" parent="WIyWlLk6GJQsqaUBKTNV-1" vertex="1">
          <mxGeometry x="1360" y="1310" width="170" height="90" as="geometry">
            <mxRectangle x="550" y="140" width="160" height="26" as="alternateBounds" />
          </mxGeometry>
        </mxCell>
        <mxCell id="QHscMvE9-RnjpSWjxgZC-16" value="url: str    " style="text;align=left;verticalAlign=top;spacingLeft=4;spacingRight=4;overflow=hidden;rotatable=0;points=[[0,0.5],[1,0.5]];portConstraint=eastwest;fontFamily=Courier New;shadow=1;" parent="QHscMvE9-RnjpSWjxgZC-15" vertex="1">
          <mxGeometry y="26" width="170" height="26" as="geometry" />
        </mxCell>
        <mxCell id="QHscMvE9-RnjpSWjxgZC-21" value="" style="line;html=1;strokeWidth=1;align=left;verticalAlign=middle;spacingTop=-1;spacingLeft=3;spacingRight=3;rotatable=0;labelPosition=right;points=[];portConstraint=eastwest;shadow=1;" parent="QHscMvE9-RnjpSWjxgZC-15" vertex="1">
          <mxGeometry y="52" width="170" height="8" as="geometry" />
        </mxCell>
        <mxCell id="QHscMvE9-RnjpSWjxgZC-22" value="post_data(self): None" style="text;align=left;verticalAlign=top;spacingLeft=4;spacingRight=4;overflow=hidden;rotatable=0;points=[[0,0.5],[1,0.5]];portConstraint=eastwest;fontFamily=Courier New;shadow=1;" parent="QHscMvE9-RnjpSWjxgZC-15" vertex="1">
          <mxGeometry y="60" width="170" height="26" as="geometry" />
        </mxCell>
        <mxCell id="g-zU0oQT_0GEfk-_0RB5-24" value="Use" style="endArrow=open;endSize=12;dashed=1;html=1;rounded=0;exitX=0.5;exitY=0;exitDx=0;exitDy=0;entryX=0.25;entryY=1;entryDx=0;entryDy=0;edgeStyle=orthogonalEdgeStyle;shadow=1;" parent="WIyWlLk6GJQsqaUBKTNV-1" source="QHscMvE9-RnjpSWjxgZC-15" target="QHscMvE9-RnjpSWjxgZC-2" edge="1">
          <mxGeometry width="160" relative="1" as="geometry">
            <mxPoint x="1457" y="1082" as="sourcePoint" />
            <mxPoint x="1570" y="1139" as="targetPoint" />
          </mxGeometry>
        </mxCell>
        <mxCell id="g-zU0oQT_0GEfk-_0RB5-25" value="Use" style="endArrow=open;endSize=12;dashed=1;html=1;rounded=0;entryX=0.5;entryY=1;entryDx=0;entryDy=0;edgeStyle=orthogonalEdgeStyle;exitX=0.5;exitY=0;exitDx=0;exitDy=0;shadow=1;" parent="WIyWlLk6GJQsqaUBKTNV-1" source="QHscMvE9-RnjpSWjxgZC-6" target="QHscMvE9-RnjpSWjxgZC-2" edge="1">
          <mxGeometry width="160" relative="1" as="geometry">
            <mxPoint x="1691" y="1310" as="sourcePoint" />
            <mxPoint x="1610" y="1190" as="targetPoint" />
          </mxGeometry>
        </mxCell>
        <mxCell id="g-zU0oQT_0GEfk-_0RB5-26" value="Use" style="endArrow=open;endSize=12;dashed=1;html=1;rounded=0;entryX=0.75;entryY=1;entryDx=0;entryDy=0;edgeStyle=orthogonalEdgeStyle;exitX=0.5;exitY=0;exitDx=0;exitDy=0;shadow=1;" parent="WIyWlLk6GJQsqaUBKTNV-1" source="g-zU0oQT_0GEfk-_0RB5-27" target="QHscMvE9-RnjpSWjxgZC-2" edge="1">
          <mxGeometry width="160" relative="1" as="geometry">
            <mxPoint x="1860" y="1300" as="sourcePoint" />
            <mxPoint x="1650" y="1190" as="targetPoint" />
            <Array as="points">
              <mxPoint x="1965" y="1230" />
              <mxPoint x="1680" y="1230" />
            </Array>
          </mxGeometry>
        </mxCell>
        <mxCell id="g-zU0oQT_0GEfk-_0RB5-27" value="GetPublicRevenueBot" style="swimlane;fontStyle=0;align=center;verticalAlign=top;childLayout=stackLayout;horizontal=1;startSize=26;horizontalStack=0;resizeParent=1;resizeLast=0;collapsible=1;marginBottom=0;rounded=0;shadow=1;strokeWidth=1;fontFamily=Courier New;" parent="WIyWlLk6GJQsqaUBKTNV-1" vertex="1">
          <mxGeometry x="1840" y="1310" width="250" height="216" as="geometry">
            <mxRectangle x="550" y="140" width="160" height="26" as="alternateBounds" />
          </mxGeometry>
        </mxCell>
        <mxCell id="g-zU0oQT_0GEfk-_0RB5-28" value="url: str" style="text;align=left;verticalAlign=top;spacingLeft=4;spacingRight=4;overflow=hidden;rotatable=0;points=[[0,0.5],[1,0.5]];portConstraint=eastwest;fontFamily=Courier New;shadow=1;" parent="g-zU0oQT_0GEfk-_0RB5-27" vertex="1">
          <mxGeometry y="26" width="250" height="26" as="geometry" />
        </mxCell>
        <mxCell id="g-zU0oQT_0GEfk-_0RB5-29" value="download_folder: str" style="text;align=left;verticalAlign=top;spacingLeft=4;spacingRight=4;overflow=hidden;rotatable=0;points=[[0,0.5],[1,0.5]];portConstraint=eastwest;rounded=0;shadow=1;html=0;fontFamily=Courier New;" parent="g-zU0oQT_0GEfk-_0RB5-27" vertex="1">
          <mxGeometry y="52" width="250" height="26" as="geometry" />
        </mxCell>
        <mxCell id="g-zU0oQT_0GEfk-_0RB5-34" value="max_time: int" style="text;align=left;verticalAlign=top;spacingLeft=4;spacingRight=4;overflow=hidden;rotatable=0;points=[[0,0.5],[1,0.5]];portConstraint=eastwest;rounded=0;shadow=1;html=0;fontFamily=Courier New;" parent="g-zU0oQT_0GEfk-_0RB5-27" vertex="1">
          <mxGeometry y="78" width="250" height="26" as="geometry" />
        </mxCell>
        <mxCell id="g-zU0oQT_0GEfk-_0RB5-35" value="driver: WebDriver" style="text;align=left;verticalAlign=top;spacingLeft=4;spacingRight=4;overflow=hidden;rotatable=0;points=[[0,0.5],[1,0.5]];portConstraint=eastwest;rounded=0;shadow=1;html=0;fontFamily=Courier New;" parent="g-zU0oQT_0GEfk-_0RB5-27" vertex="1">
          <mxGeometry y="104" width="250" height="26" as="geometry" />
        </mxCell>
        <mxCell id="g-zU0oQT_0GEfk-_0RB5-30" value="" style="line;html=1;strokeWidth=1;align=left;verticalAlign=middle;spacingTop=-1;spacingLeft=3;spacingRight=3;rotatable=0;labelPosition=right;points=[];portConstraint=eastwest;shadow=1;" parent="g-zU0oQT_0GEfk-_0RB5-27" vertex="1">
          <mxGeometry y="130" width="250" height="8" as="geometry" />
        </mxCell>
        <mxCell id="g-zU0oQT_0GEfk-_0RB5-36" value="GetPublicRevenueBot()" style="text;align=left;verticalAlign=top;spacingLeft=4;spacingRight=4;overflow=hidden;rotatable=0;points=[[0,0.5],[1,0.5]];portConstraint=eastwest;fontFamily=Courier New;shadow=1;" parent="g-zU0oQT_0GEfk-_0RB5-27" vertex="1">
          <mxGeometry y="138" width="250" height="26" as="geometry" />
        </mxCell>
        <mxCell id="g-zU0oQT_0GEfk-_0RB5-31" value="is_folder_empty(): bool" style="text;align=left;verticalAlign=top;spacingLeft=4;spacingRight=4;overflow=hidden;rotatable=0;points=[[0,0.5],[1,0.5]];portConstraint=eastwest;fontFamily=Courier New;shadow=1;" parent="g-zU0oQT_0GEfk-_0RB5-27" vertex="1">
          <mxGeometry y="164" width="250" height="26" as="geometry" />
        </mxCell>
        <mxCell id="g-zU0oQT_0GEfk-_0RB5-32" value="clear_download_folder(): None" style="text;align=left;verticalAlign=top;spacingLeft=4;spacingRight=4;overflow=hidden;rotatable=0;points=[[0,0.5],[1,0.5]];portConstraint=eastwest;fontFamily=Courier New;shadow=1;" parent="g-zU0oQT_0GEfk-_0RB5-27" vertex="1">
          <mxGeometry y="190" width="250" height="26" as="geometry" />
        </mxCell>
        <mxCell id="g-zU0oQT_0GEfk-_0RB5-41" value="BaseView" style="swimlane;fontStyle=0;align=center;verticalAlign=top;childLayout=stackLayout;horizontal=1;startSize=26;horizontalStack=0;resizeParent=1;resizeLast=0;collapsible=1;marginBottom=0;rounded=0;shadow=1;strokeWidth=1;fontFamily=Courier New;" parent="WIyWlLk6GJQsqaUBKTNV-1" vertex="1">
          <mxGeometry x="1172.63" y="650" width="474.75" height="86" as="geometry">
            <mxRectangle x="340" y="380" width="170" height="26" as="alternateBounds" />
          </mxGeometry>
        </mxCell>
        <mxCell id="NFaRfibRQBAF27eFvPAq-17" value="+ controller: WindowControllerI" style="text;align=left;verticalAlign=top;spacingLeft=4;spacingRight=4;overflow=hidden;rotatable=0;points=[[0,0.5],[1,0.5]];portConstraint=eastwest;shadow=1;fontFamily=Courier New;" parent="g-zU0oQT_0GEfk-_0RB5-41" vertex="1">
          <mxGeometry y="26" width="474.75" height="26" as="geometry" />
        </mxCell>
        <mxCell id="g-zU0oQT_0GEfk-_0RB5-43" value="" style="line;html=1;strokeWidth=1;align=left;verticalAlign=middle;spacingTop=-1;spacingLeft=3;spacingRight=3;rotatable=0;labelPosition=right;points=[];portConstraint=eastwest;shadow=1;" parent="g-zU0oQT_0GEfk-_0RB5-41" vertex="1">
          <mxGeometry y="52" width="474.75" height="8" as="geometry" />
        </mxCell>
        <mxCell id="g-zU0oQT_0GEfk-_0RB5-42" value="# create_view(parent: CTkFrame, controller: WindowControllerI)" style="text;align=left;verticalAlign=top;spacingLeft=4;spacingRight=4;overflow=hidden;rotatable=0;points=[[0,0.5],[1,0.5]];portConstraint=eastwest;shadow=1;fontFamily=Courier New;" parent="g-zU0oQT_0GEfk-_0RB5-41" vertex="1">
          <mxGeometry y="60" width="474.75" height="26" as="geometry" />
        </mxCell>
        <mxCell id="g-zU0oQT_0GEfk-_0RB5-44" value="Extends" style="endArrow=block;endSize=16;endFill=0;html=1;rounded=0;exitX=0.5;exitY=0;exitDx=0;exitDy=0;edgeStyle=orthogonalEdgeStyle;entryX=0.25;entryY=1;entryDx=0;entryDy=0;" parent="WIyWlLk6GJQsqaUBKTNV-1" source="zkfFHV4jXpPFQw0GAbJ--6" target="g-zU0oQT_0GEfk-_0RB5-41" edge="1">
          <mxGeometry width="160" relative="1" as="geometry">
            <mxPoint x="1170" y="820" as="sourcePoint" />
            <mxPoint x="1370" y="730" as="targetPoint" />
          </mxGeometry>
        </mxCell>
        <mxCell id="g-zU0oQT_0GEfk-_0RB5-45" value="Extends" style="endArrow=block;endSize=16;endFill=0;html=1;rounded=0;exitX=0.5;exitY=0;exitDx=0;exitDy=0;entryX=0.5;entryY=1;entryDx=0;entryDy=0;edgeStyle=orthogonalEdgeStyle;" parent="WIyWlLk6GJQsqaUBKTNV-1" source="zkfFHV4jXpPFQw0GAbJ--13" target="g-zU0oQT_0GEfk-_0RB5-41" edge="1">
          <mxGeometry x="-0.3415" width="160" relative="1" as="geometry">
            <mxPoint x="1171" y="860" as="sourcePoint" />
            <mxPoint x="1380" y="740" as="targetPoint" />
            <mxPoint as="offset" />
          </mxGeometry>
        </mxCell>
        <mxCell id="g-zU0oQT_0GEfk-_0RB5-46" value="Extends" style="endArrow=block;endSize=16;endFill=0;html=1;rounded=0;exitX=0.5;exitY=0;exitDx=0;exitDy=0;entryX=0.75;entryY=1;entryDx=0;entryDy=0;edgeStyle=orthogonalEdgeStyle;" parent="WIyWlLk6GJQsqaUBKTNV-1" source="zkfFHV4jXpPFQw0GAbJ--17" target="g-zU0oQT_0GEfk-_0RB5-41" edge="1">
          <mxGeometry width="160" relative="1" as="geometry">
            <mxPoint x="1410" y="894" as="sourcePoint" />
            <mxPoint x="1420" y="740" as="targetPoint" />
          </mxGeometry>
        </mxCell>
        <mxCell id="g-zU0oQT_0GEfk-_0RB5-47" value="" style="endArrow=diamondThin;endFill=1;endSize=24;html=1;rounded=0;exitX=0.5;exitY=0;exitDx=0;exitDy=0;entryX=0.5;entryY=1;entryDx=0;entryDy=0;shadow=1;" parent="WIyWlLk6GJQsqaUBKTNV-1" source="g-zU0oQT_0GEfk-_0RB5-41" target="zkfFHV4jXpPFQw0GAbJ--0" edge="1">
          <mxGeometry width="160" relative="1" as="geometry">
            <mxPoint x="1230" y="690" as="sourcePoint" />
            <mxPoint x="1230" y="620" as="targetPoint" />
          </mxGeometry>
        </mxCell>
        <mxCell id="ytB4MkpsGnKEpf6S8_Jn-3" value="Use" style="endArrow=open;endSize=12;dashed=1;html=1;rounded=0;exitX=0.5;exitY=1;exitDx=0;exitDy=0;entryX=0.5;entryY=0;entryDx=0;entryDy=0;edgeStyle=orthogonalEdgeStyle;shadow=1;" parent="WIyWlLk6GJQsqaUBKTNV-1" source="zkfFHV4jXpPFQw0GAbJ--17" target="QHscMvE9-RnjpSWjxgZC-2" edge="1">
          <mxGeometry width="160" relative="1" as="geometry">
            <mxPoint x="1320" y="1120" as="sourcePoint" />
            <mxPoint x="1475" y="990" as="targetPoint" />
          </mxGeometry>
        </mxCell>
        <mxCell id="BUmgbFlJVZWhThY6M0bS-0" value="GUI View" style="shape=umlFrame;whiteSpace=wrap;html=1;pointerEvents=0;fillColor=#eeeeee;strokeColor=#36393d;" parent="WIyWlLk6GJQsqaUBKTNV-1" vertex="1">
          <mxGeometry x="439" y="1870" width="476" height="230" as="geometry" />
        </mxCell>
        <mxCell id="BUmgbFlJVZWhThY6M0bS-32" style="edgeStyle=orthogonalEdgeStyle;rounded=0;orthogonalLoop=1;jettySize=auto;html=1;entryX=1;entryY=0.5;entryDx=0;entryDy=0;endArrow=open;endFill=0;" parent="WIyWlLk6GJQsqaUBKTNV-1" source="BUmgbFlJVZWhThY6M0bS-1" target="BUmgbFlJVZWhThY6M0bS-31" edge="1">
          <mxGeometry relative="1" as="geometry" />
        </mxCell>
        <mxCell id="BUmgbFlJVZWhThY6M0bS-49" style="edgeStyle=orthogonalEdgeStyle;rounded=0;orthogonalLoop=1;jettySize=auto;html=1;entryX=0;entryY=0.5;entryDx=0;entryDy=0;endArrow=block;endFill=1;exitX=0.5;exitY=0;exitDx=0;exitDy=0;" parent="WIyWlLk6GJQsqaUBKTNV-1" source="BUmgbFlJVZWhThY6M0bS-1" target="BUmgbFlJVZWhThY6M0bS-37" edge="1">
          <mxGeometry relative="1" as="geometry" />
        </mxCell>
        <mxCell id="-y7j4bohJlfcVcTbCYul-9" style="edgeStyle=orthogonalEdgeStyle;rounded=0;orthogonalLoop=1;jettySize=auto;html=1;entryX=0.75;entryY=1;entryDx=0;entryDy=0;endArrow=open;endFill=0;" parent="WIyWlLk6GJQsqaUBKTNV-1" source="BUmgbFlJVZWhThY6M0bS-1" target="-y7j4bohJlfcVcTbCYul-3" edge="1">
          <mxGeometry relative="1" as="geometry">
            <Array as="points">
              <mxPoint x="537" y="2070" />
              <mxPoint x="1145" y="2070" />
            </Array>
          </mxGeometry>
        </mxCell>
        <mxCell id="RkW8LBAGmyLjZ_9-mTIB-2" style="edgeStyle=orthogonalEdgeStyle;rounded=0;orthogonalLoop=1;jettySize=auto;html=1;exitX=0.25;exitY=0;exitDx=0;exitDy=0;entryX=1;entryY=0.5;entryDx=0;entryDy=0;endArrow=open;endFill=0;" parent="WIyWlLk6GJQsqaUBKTNV-1" source="BUmgbFlJVZWhThY6M0bS-1" target="RkW8LBAGmyLjZ_9-mTIB-0" edge="1">
          <mxGeometry relative="1" as="geometry" />
        </mxCell>
        <mxCell id="BUmgbFlJVZWhThY6M0bS-1" value="MainView" style="html=1;whiteSpace=wrap;fontFamily=Courier New;shadow=1;" parent="WIyWlLk6GJQsqaUBKTNV-1" vertex="1">
          <mxGeometry x="484" y="1985" width="110" height="50" as="geometry" />
        </mxCell>
        <mxCell id="BUmgbFlJVZWhThY6M0bS-50" style="edgeStyle=orthogonalEdgeStyle;rounded=0;orthogonalLoop=1;jettySize=auto;html=1;entryX=0.5;entryY=1;entryDx=0;entryDy=0;endArrow=block;endFill=1;" parent="WIyWlLk6GJQsqaUBKTNV-1" source="BUmgbFlJVZWhThY6M0bS-2" target="BUmgbFlJVZWhThY6M0bS-37" edge="1">
          <mxGeometry relative="1" as="geometry" />
        </mxCell>
        <mxCell id="-y7j4bohJlfcVcTbCYul-10" style="edgeStyle=orthogonalEdgeStyle;rounded=0;orthogonalLoop=1;jettySize=auto;html=1;entryX=0.5;entryY=1;entryDx=0;entryDy=0;endArrow=open;endFill=0;" parent="WIyWlLk6GJQsqaUBKTNV-1" source="BUmgbFlJVZWhThY6M0bS-2" target="-y7j4bohJlfcVcTbCYul-3" edge="1">
          <mxGeometry relative="1" as="geometry">
            <Array as="points">
              <mxPoint x="684" y="2070" />
              <mxPoint x="1110" y="2070" />
            </Array>
          </mxGeometry>
        </mxCell>
        <mxCell id="BUmgbFlJVZWhThY6M0bS-2" value="ConfigView" style="html=1;whiteSpace=wrap;fontFamily=Courier New;shadow=1;" parent="WIyWlLk6GJQsqaUBKTNV-1" vertex="1">
          <mxGeometry x="629" y="1985" width="110" height="50" as="geometry" />
        </mxCell>
        <mxCell id="BUmgbFlJVZWhThY6M0bS-51" style="edgeStyle=orthogonalEdgeStyle;rounded=0;orthogonalLoop=1;jettySize=auto;html=1;entryX=1;entryY=0.5;entryDx=0;entryDy=0;endArrow=block;endFill=1;" parent="WIyWlLk6GJQsqaUBKTNV-1" source="BUmgbFlJVZWhThY6M0bS-3" target="BUmgbFlJVZWhThY6M0bS-37" edge="1">
          <mxGeometry relative="1" as="geometry">
            <Array as="points">
              <mxPoint x="825" y="1925" />
            </Array>
          </mxGeometry>
        </mxCell>
        <mxCell id="-y7j4bohJlfcVcTbCYul-11" style="edgeStyle=orthogonalEdgeStyle;rounded=0;orthogonalLoop=1;jettySize=auto;html=1;entryX=0.25;entryY=1;entryDx=0;entryDy=0;endArrow=open;endFill=0;" parent="WIyWlLk6GJQsqaUBKTNV-1" source="BUmgbFlJVZWhThY6M0bS-3" target="-y7j4bohJlfcVcTbCYul-3" edge="1">
          <mxGeometry relative="1" as="geometry">
            <Array as="points">
              <mxPoint x="830" y="2070" />
              <mxPoint x="1075" y="2070" />
            </Array>
          </mxGeometry>
        </mxCell>
        <mxCell id="BUmgbFlJVZWhThY6M0bS-3" value="OpenFileView" style="html=1;whiteSpace=wrap;fontFamily=Courier New;shadow=1;" parent="WIyWlLk6GJQsqaUBKTNV-1" vertex="1">
          <mxGeometry x="775" y="1985" width="110" height="50" as="geometry" />
        </mxCell>
        <mxCell id="BUmgbFlJVZWhThY6M0bS-6" value="Interactors" style="shape=umlFrame;whiteSpace=wrap;html=1;pointerEvents=0;width=90;height=50;fillColor=#eeeeee;strokeColor=#36393d;" parent="WIyWlLk6GJQsqaUBKTNV-1" vertex="1">
          <mxGeometry x="-370" y="1820" width="740" height="340" as="geometry" />
        </mxCell>
        <mxCell id="BUmgbFlJVZWhThY6M0bS-10" value="AutomationService" style="html=1;whiteSpace=wrap;fontFamily=Courier New;shadow=1;" parent="WIyWlLk6GJQsqaUBKTNV-1" vertex="1">
          <mxGeometry x="34" y="1980" width="160" height="60" as="geometry" />
        </mxCell>
        <mxCell id="BUmgbFlJVZWhThY6M0bS-27" style="edgeStyle=orthogonalEdgeStyle;rounded=0;orthogonalLoop=1;jettySize=auto;html=1;entryX=0;entryY=0.5;entryDx=0;entryDy=0;endArrow=block;endFill=1;" parent="WIyWlLk6GJQsqaUBKTNV-1" source="BUmgbFlJVZWhThY6M0bS-11" target="BUmgbFlJVZWhThY6M0bS-21" edge="1">
          <mxGeometry relative="1" as="geometry">
            <Array as="points" />
          </mxGeometry>
        </mxCell>
        <mxCell id="BUmgbFlJVZWhThY6M0bS-11" value="HandleBot" style="html=1;whiteSpace=wrap;fontFamily=Courier New;shadow=1;" parent="WIyWlLk6GJQsqaUBKTNV-1" vertex="1">
          <mxGeometry x="-310" y="2090" width="110" height="50" as="geometry" />
        </mxCell>
        <mxCell id="BUmgbFlJVZWhThY6M0bS-47" style="edgeStyle=orthogonalEdgeStyle;rounded=0;orthogonalLoop=1;jettySize=auto;html=1;entryX=0;entryY=0.5;entryDx=0;entryDy=0;endArrow=block;endFill=1;" parent="WIyWlLk6GJQsqaUBKTNV-1" source="BUmgbFlJVZWhThY6M0bS-12" target="BUmgbFlJVZWhThY6M0bS-41" edge="1">
          <mxGeometry relative="1" as="geometry" />
        </mxCell>
        <mxCell id="BUmgbFlJVZWhThY6M0bS-12" value="HandleData" style="html=1;whiteSpace=wrap;fontFamily=Courier New;shadow=1;" parent="WIyWlLk6GJQsqaUBKTNV-1" vertex="1">
          <mxGeometry x="-310" y="1880" width="110" height="50" as="geometry" />
        </mxCell>
        <mxCell id="BUmgbFlJVZWhThY6M0bS-46" style="edgeStyle=orthogonalEdgeStyle;rounded=0;orthogonalLoop=1;jettySize=auto;html=1;entryX=0;entryY=0.5;entryDx=0;entryDy=0;endArrow=block;endFill=1;" parent="WIyWlLk6GJQsqaUBKTNV-1" source="BUmgbFlJVZWhThY6M0bS-13" target="BUmgbFlJVZWhThY6M0bS-42" edge="1">
          <mxGeometry relative="1" as="geometry" />
        </mxCell>
        <mxCell id="BUmgbFlJVZWhThY6M0bS-13" value="HandlePostAPI" style="html=1;whiteSpace=wrap;fontFamily=Courier New;shadow=1;" parent="WIyWlLk6GJQsqaUBKTNV-1" vertex="1">
          <mxGeometry x="-310" y="1985" width="110" height="50" as="geometry" />
        </mxCell>
        <mxCell id="BUmgbFlJVZWhThY6M0bS-21" value="&lt;font face=&quot;Courier New&quot;&gt;«I»&lt;br&gt;&lt;b style=&quot;&quot;&gt;DownloadBot&lt;/b&gt;&lt;/font&gt;" style="html=1;whiteSpace=wrap;shadow=1;" parent="WIyWlLk6GJQsqaUBKTNV-1" vertex="1">
          <mxGeometry x="-140" y="2090" width="120" height="50" as="geometry" />
        </mxCell>
        <mxCell id="BUmgbFlJVZWhThY6M0bS-22" value="O Bot Handler seria o responsável por baixar o arquivo" style="text;html=1;align=center;verticalAlign=middle;resizable=0;points=[];autosize=1;strokeColor=none;fillColor=none;" parent="WIyWlLk6GJQsqaUBKTNV-1" vertex="1">
          <mxGeometry x="-960" y="2020" width="320" height="30" as="geometry" />
        </mxCell>
        <mxCell id="BUmgbFlJVZWhThY6M0bS-24" value="O Data Handler por pegar o arquivo baixo e manipula-lo ou&amp;nbsp;&lt;div&gt;talvez pegar o arquivo deveria ser algo feito fora dessa classe?&lt;/div&gt;" style="text;html=1;align=center;verticalAlign=middle;resizable=0;points=[];autosize=1;strokeColor=none;fillColor=none;" parent="WIyWlLk6GJQsqaUBKTNV-1" vertex="1">
          <mxGeometry x="-980" y="2055" width="360" height="40" as="geometry" />
        </mxCell>
        <mxCell id="BUmgbFlJVZWhThY6M0bS-25" value="O API Handler precisa de um Input e Outpud boundary." style="text;html=1;align=center;verticalAlign=middle;resizable=0;points=[];autosize=1;strokeColor=none;fillColor=none;" parent="WIyWlLk6GJQsqaUBKTNV-1" vertex="1">
          <mxGeometry x="-960" y="2115" width="320" height="30" as="geometry" />
        </mxCell>
        <mxCell id="BUmgbFlJVZWhThY6M0bS-31" value="&lt;font face=&quot;Courier New&quot;&gt;«I»&lt;br&gt;&lt;b style=&quot;&quot;&gt;Automation&lt;/b&gt;&lt;/font&gt;" style="html=1;whiteSpace=wrap;shadow=1;" parent="WIyWlLk6GJQsqaUBKTNV-1" vertex="1">
          <mxGeometry x="234" y="1985" width="120" height="50" as="geometry" />
        </mxCell>
        <mxCell id="BUmgbFlJVZWhThY6M0bS-33" style="edgeStyle=orthogonalEdgeStyle;rounded=0;orthogonalLoop=1;jettySize=auto;html=1;entryX=0;entryY=0.5;entryDx=0;entryDy=0;endArrow=block;endFill=1;" parent="WIyWlLk6GJQsqaUBKTNV-1" source="BUmgbFlJVZWhThY6M0bS-10" target="BUmgbFlJVZWhThY6M0bS-31" edge="1">
          <mxGeometry relative="1" as="geometry" />
        </mxCell>
        <mxCell id="BUmgbFlJVZWhThY6M0bS-37" value="&lt;font face=&quot;Courier New&quot;&gt;«A»&lt;br&gt;&lt;b style=&quot;&quot;&gt;BaseView&lt;/b&gt;&lt;/font&gt;" style="html=1;whiteSpace=wrap;shadow=1;rounded=0;" parent="WIyWlLk6GJQsqaUBKTNV-1" vertex="1">
          <mxGeometry x="624" y="1900" width="120" height="50" as="geometry" />
        </mxCell>
        <mxCell id="-y7j4bohJlfcVcTbCYul-5" style="edgeStyle=orthogonalEdgeStyle;rounded=0;orthogonalLoop=1;jettySize=auto;html=1;entryX=0.5;entryY=0;entryDx=0;entryDy=0;endArrow=none;endFill=0;startArrow=diamondThin;startFill=1;strokeWidth=1;endSize=5;startSize=12;" parent="WIyWlLk6GJQsqaUBKTNV-1" source="BUmgbFlJVZWhThY6M0bS-38" target="BUmgbFlJVZWhThY6M0bS-37" edge="1">
          <mxGeometry relative="1" as="geometry" />
        </mxCell>
        <mxCell id="-y7j4bohJlfcVcTbCYul-12" style="edgeStyle=orthogonalEdgeStyle;rounded=0;orthogonalLoop=1;jettySize=auto;html=1;entryX=0.5;entryY=0;entryDx=0;entryDy=0;endArrow=block;endFill=1;" parent="WIyWlLk6GJQsqaUBKTNV-1" source="BUmgbFlJVZWhThY6M0bS-38" target="-y7j4bohJlfcVcTbCYul-3" edge="1">
          <mxGeometry relative="1" as="geometry" />
        </mxCell>
        <mxCell id="BUmgbFlJVZWhThY6M0bS-38" value="Window" style="html=1;whiteSpace=wrap;fontFamily=Courier New;shadow=1;" parent="WIyWlLk6GJQsqaUBKTNV-1" vertex="1">
          <mxGeometry x="1055" y="1785" width="110" height="50" as="geometry" />
        </mxCell>
        <mxCell id="BUmgbFlJVZWhThY6M0bS-39" value="Controller" style="shape=umlFrame;whiteSpace=wrap;html=1;pointerEvents=0;width=90;height=50;fillColor=#eeeeee;strokeColor=#36393d;" parent="WIyWlLk6GJQsqaUBKTNV-1" vertex="1">
          <mxGeometry x="985" y="1720" width="250" height="380" as="geometry" />
        </mxCell>
        <mxCell id="BUmgbFlJVZWhThY6M0bS-40" style="edgeStyle=orthogonalEdgeStyle;rounded=0;orthogonalLoop=1;jettySize=auto;html=1;entryX=1;entryY=0.5;entryDx=0;entryDy=0;endArrow=open;endFill=0;" parent="WIyWlLk6GJQsqaUBKTNV-1" source="BUmgbFlJVZWhThY6M0bS-10" target="BUmgbFlJVZWhThY6M0bS-21" edge="1">
          <mxGeometry relative="1" as="geometry">
            <Array as="points">
              <mxPoint x="114" y="2115" />
            </Array>
          </mxGeometry>
        </mxCell>
        <mxCell id="BUmgbFlJVZWhThY6M0bS-41" value="&lt;font face=&quot;Courier New&quot;&gt;«I»&lt;br&gt;&lt;b&gt;DataHandler&lt;/b&gt;&lt;/font&gt;" style="html=1;whiteSpace=wrap;shadow=1;" parent="WIyWlLk6GJQsqaUBKTNV-1" vertex="1">
          <mxGeometry x="-140" y="1880" width="120" height="50" as="geometry" />
        </mxCell>
        <mxCell id="BUmgbFlJVZWhThY6M0bS-42" value="&lt;font face=&quot;Courier New&quot;&gt;«I»&lt;br&gt;&lt;b style=&quot;&quot;&gt;PostAPI&lt;/b&gt;&lt;/font&gt;" style="html=1;whiteSpace=wrap;shadow=1;" parent="WIyWlLk6GJQsqaUBKTNV-1" vertex="1">
          <mxGeometry x="-140" y="1985" width="120" height="50" as="geometry" />
        </mxCell>
        <mxCell id="BUmgbFlJVZWhThY6M0bS-44" style="edgeStyle=orthogonalEdgeStyle;rounded=0;orthogonalLoop=1;jettySize=auto;html=1;entryX=1;entryY=0.5;entryDx=0;entryDy=0;endArrow=open;endFill=0;exitX=0;exitY=0.5;exitDx=0;exitDy=0;" parent="WIyWlLk6GJQsqaUBKTNV-1" source="BUmgbFlJVZWhThY6M0bS-10" target="BUmgbFlJVZWhThY6M0bS-42" edge="1">
          <mxGeometry relative="1" as="geometry">
            <mxPoint x="124" y="2050" as="sourcePoint" />
            <mxPoint x="-46" y="2125" as="targetPoint" />
            <Array as="points">
              <mxPoint x="-16" y="2010" />
              <mxPoint x="-16" y="2010" />
            </Array>
          </mxGeometry>
        </mxCell>
        <mxCell id="BUmgbFlJVZWhThY6M0bS-45" style="edgeStyle=orthogonalEdgeStyle;rounded=0;orthogonalLoop=1;jettySize=auto;html=1;entryX=1;entryY=0.5;entryDx=0;entryDy=0;endArrow=open;endFill=0;exitX=0.5;exitY=0;exitDx=0;exitDy=0;" parent="WIyWlLk6GJQsqaUBKTNV-1" source="BUmgbFlJVZWhThY6M0bS-10" target="BUmgbFlJVZWhThY6M0bS-41" edge="1">
          <mxGeometry relative="1" as="geometry">
            <mxPoint x="64" y="1965" as="sourcePoint" />
            <mxPoint x="-26" y="1965" as="targetPoint" />
            <Array as="points">
              <mxPoint x="114" y="1905" />
            </Array>
          </mxGeometry>
        </mxCell>
        <mxCell id="-y7j4bohJlfcVcTbCYul-3" value="&lt;font face=&quot;Courier New&quot;&gt;«I»&lt;br&gt;&lt;b&gt;WindowController&lt;/b&gt;&lt;/font&gt;" style="html=1;whiteSpace=wrap;rounded=0;glass=0;shadow=1;" parent="WIyWlLk6GJQsqaUBKTNV-1" vertex="1">
          <mxGeometry x="1040" y="1905" width="140" height="50" as="geometry" />
        </mxCell>
        <mxCell id="RkW8LBAGmyLjZ_9-mTIB-0" value="get_page_status()" style="html=1;whiteSpace=wrap;fontFamily=Courier New;shadow=1;" parent="WIyWlLk6GJQsqaUBKTNV-1" vertex="1">
          <mxGeometry x="225" y="1890" width="129" height="50" as="geometry" />
        </mxCell>
        <mxCell id="NFaRfibRQBAF27eFvPAq-7" value="WindowControllerI" style="swimlane;fontStyle=2;align=center;verticalAlign=top;childLayout=stackLayout;horizontal=1;startSize=26;horizontalStack=0;resizeParent=1;resizeLast=0;collapsible=1;marginBottom=0;rounded=0;shadow=1;strokeWidth=1;fontFamily=Courier New;" parent="WIyWlLk6GJQsqaUBKTNV-1" vertex="1">
          <mxGeometry x="1710" y="415" width="350" height="145" as="geometry">
            <mxRectangle x="230" y="140" width="160" height="26" as="alternateBounds" />
          </mxGeometry>
        </mxCell>
        <mxCell id="NFaRfibRQBAF27eFvPAq-10" value="" style="line;html=1;strokeWidth=1;align=left;verticalAlign=middle;spacingTop=-1;spacingLeft=3;spacingRight=3;rotatable=0;labelPosition=right;points=[];portConstraint=eastwest;shadow=1;" parent="NFaRfibRQBAF27eFvPAq-7" vertex="1">
          <mxGeometry y="26" width="350" height="8" as="geometry" />
        </mxCell>
        <mxCell id="NFaRfibRQBAF27eFvPAq-11" value="- create_window(): None" style="text;align=left;verticalAlign=top;spacingLeft=4;spacingRight=4;overflow=hidden;rotatable=0;points=[[0,0.5],[1,0.5]];portConstraint=eastwest;fontFamily=Courier New;shadow=1;" parent="NFaRfibRQBAF27eFvPAq-7" vertex="1">
          <mxGeometry y="34" width="350" height="26" as="geometry" />
        </mxCell>
        <mxCell id="NFaRfibRQBAF27eFvPAq-12" value="- switch_temes(theme: str): None" style="text;align=left;verticalAlign=top;spacingLeft=4;spacingRight=4;overflow=hidden;rotatable=0;points=[[0,0.5],[1,0.5]];portConstraint=eastwest;fontFamily=Courier New;shadow=1;" parent="NFaRfibRQBAF27eFvPAq-7" vertex="1">
          <mxGeometry y="60" width="350" height="26" as="geometry" />
        </mxCell>
        <mxCell id="NFaRfibRQBAF27eFvPAq-13" value="- set_views(view: List[Type[BaseView]]): None" style="text;align=left;verticalAlign=top;spacingLeft=4;spacingRight=4;overflow=hidden;rotatable=0;points=[[0,0.5],[1,0.5]];portConstraint=eastwest;fontFamily=Courier New;shadow=1;" parent="NFaRfibRQBAF27eFvPAq-7" vertex="1">
          <mxGeometry y="86" width="350" height="26" as="geometry" />
        </mxCell>
        <mxCell id="NFaRfibRQBAF27eFvPAq-14" value="- get_view(view_name: str): None" style="text;align=left;verticalAlign=top;spacingLeft=4;spacingRight=4;overflow=hidden;rotatable=0;points=[[0,0.5],[1,0.5]];portConstraint=eastwest;fontFamily=Courier New;shadow=1;" parent="NFaRfibRQBAF27eFvPAq-7" vertex="1">
          <mxGeometry y="112" width="350" height="26" as="geometry" />
        </mxCell>
        <mxCell id="NFaRfibRQBAF27eFvPAq-16" style="edgeStyle=orthogonalEdgeStyle;rounded=0;orthogonalLoop=1;jettySize=auto;html=1;entryX=-0.002;entryY=0.285;entryDx=0;entryDy=0;entryPerimeter=0;endArrow=block;endFill=1;" parent="WIyWlLk6GJQsqaUBKTNV-1" source="zkfFHV4jXpPFQw0GAbJ--5" target="NFaRfibRQBAF27eFvPAq-13" edge="1">
          <mxGeometry relative="1" as="geometry" />
        </mxCell>
      </root>
    </mxGraphModel>
  </diagram>
</mxfile>
